<svg width="20" height="20" viewBox="0 0 20 20" fill="none" xmlns="http://www.w3.org/2000/svg">
<path d="M15.625 14.7619V12.8571H4.375V14.7619H15.625ZM15.625 16.6666H4.375C3.34082 16.6666 2.5 15.8125 2.5 14.7619V12.8571C2.5 11.8065 3.34082 10.9524 4.375 10.9524H15.625C16.6592 10.9524 17.5 11.8065 17.5 12.8571V14.7619C17.5 15.8125 16.6592 16.6666 15.625 16.6666ZM10.9375 7.14284C10.9375 8.19343 10.0967 9.0476 9.0625 9.0476H4.375C3.34082 9.0476 2.5 8.19343 2.5 7.14284V5.23807C2.5 4.18748 3.34082 3.33331 4.375 3.33331H8.59375H9.0625H13.2812C14.5762 3.33331 15.625 4.39879 15.625 5.71427V6.19046H16.7412C17.3682 6.19046 17.6816 6.96129 17.2393 7.41069L15.1855 9.49403C14.9102 9.77379 14.4648 9.77379 14.1924 9.49403L12.1387 7.41069C11.6963 6.96129 12.0098 6.19046 12.6367 6.19046H13.7529V5.71427C13.7529 5.45236 13.542 5.23807 13.2842 5.23807H10.9404V7.14284H10.9375Z" fill="#6C757D"/>
</svg>
