<svg width="18" height="16" viewBox="0 0 18 16" fill="none" xmlns="http://www.w3.org/2000/svg">
<path d="M15.75 13.7143V11.4286H2.25V13.7143H15.75ZM15.75 16H2.25C1.00898 16 0 14.975 0 13.7143V11.4286C0 10.1679 1.00898 9.14286 2.25 9.14286H15.75C16.991 9.14286 18 10.1679 18 11.4286V13.7143C18 14.975 16.991 16 15.75 16ZM10.125 4.57143C10.125 5.83214 9.11602 6.85714 7.875 6.85714H2.25C1.00898 6.85714 0 5.83214 0 4.57143V2.28571C0 1.025 1.00898 0 2.25 0H7.3125H7.875H12.9375C14.4914 0 15.75 1.27857 15.75 2.85714V3.42857H17.0895C17.8418 3.42857 18.218 4.35357 17.6871 4.89286L15.2227 7.39286C14.8922 7.72857 14.3578 7.72857 14.0309 7.39286L11.5664 4.89286C11.0355 4.35357 11.4117 3.42857 12.1641 3.42857H13.5035V2.85714C13.5035 2.54286 13.2504 2.28571 12.941 2.28571H10.1285V4.57143H10.125Z" fill="#6C757D"/>
</svg>
