<svg width="14" height="12" viewBox="0 0 14 12" fill="none" xmlns="http://www.w3.org/2000/svg">
<path d="M0.333336 2.14815C0.333336 1.33102 0.997688 0.666672 1.81482 0.666672H12.1852C13.0023 0.666672 13.6667 1.33102 13.6667 2.14815V9.55556C13.6667 10.3727 13.0023 11.037 12.1852 11.037H1.81482C0.997688 11.037 0.333336 10.3727 0.333336 9.55556V2.14815ZM3.2963 6.5926C3.49276 6.5926 3.68117 6.51456 3.82008 6.37564C3.959 6.23672 4.03704 6.04831 4.03704 5.85186C4.03704 5.6554 3.959 5.46699 3.82008 5.32807C3.68117 5.18916 3.49276 5.11112 3.2963 5.11112C3.09984 5.11112 2.91143 5.18916 2.77252 5.32807C2.6336 5.46699 2.55556 5.6554 2.55556 5.85186C2.55556 6.04831 2.6336 6.23672 2.77252 6.37564C2.91143 6.51456 3.09984 6.5926 3.2963 6.5926ZM4.03704 3.62963C4.03704 3.43318 3.959 3.24477 3.82008 3.10585C3.68117 2.96694 3.49276 2.88889 3.2963 2.88889C3.09984 2.88889 2.91143 2.96694 2.77252 3.10585C2.6336 3.24477 2.55556 3.43318 2.55556 3.62963C2.55556 3.82609 2.6336 4.0145 2.77252 4.15342C2.91143 4.29233 3.09984 4.37038 3.2963 4.37038C3.49276 4.37038 3.68117 4.29233 3.82008 4.15342C3.959 4.0145 4.03704 3.82609 4.03704 3.62963ZM3.2963 8.81482C3.49276 8.81482 3.68117 8.73678 3.82008 8.59786C3.959 8.45895 4.03704 8.27054 4.03704 8.07408C4.03704 7.87762 3.959 7.68921 3.82008 7.5503C3.68117 7.41138 3.49276 7.33334 3.2963 7.33334C3.09984 7.33334 2.91143 7.41138 2.77252 7.5503C2.6336 7.68921 2.55556 7.87762 2.55556 8.07408C2.55556 8.27054 2.6336 8.45895 2.77252 8.59786C2.91143 8.73678 3.09984 8.81482 3.2963 8.81482ZM5.51852 3.07408C5.21065 3.07408 4.96297 3.32176 4.96297 3.62963C4.96297 3.93751 5.21065 4.18519 5.51852 4.18519H10.7037C11.0116 4.18519 11.2593 3.93751 11.2593 3.62963C11.2593 3.32176 11.0116 3.07408 10.7037 3.07408H5.51852ZM5.51852 5.2963C5.21065 5.2963 4.96297 5.54399 4.96297 5.85186C4.96297 6.15973 5.21065 6.40741 5.51852 6.40741H10.7037C11.0116 6.40741 11.2593 6.15973 11.2593 5.85186C11.2593 5.54399 11.0116 5.2963 10.7037 5.2963H5.51852ZM5.51852 7.51852C5.21065 7.51852 4.96297 7.76621 4.96297 8.07408C4.96297 8.38195 5.21065 8.62963 5.51852 8.62963H10.7037C11.0116 8.62963 11.2593 8.38195 11.2593 8.07408C11.2593 7.76621 11.0116 7.51852 10.7037 7.51852H5.51852Z" fill="#6C757D"/>
</svg>
