<svg width="14" height="12" viewBox="0 0 14 12" fill="none" xmlns="http://www.w3.org/2000/svg">
<path d="M0.333496 2.14815C0.333496 1.33102 0.997848 0.666672 1.81498 0.666672H12.1853C13.0025 0.666672 13.6668 1.33102 13.6668 2.14815V9.55556C13.6668 10.3727 13.0025 11.037 12.1853 11.037H1.81498C0.997848 11.037 0.333496 10.3727 0.333496 9.55556V2.14815ZM3.29646 6.5926C3.49292 6.5926 3.68133 6.51456 3.82024 6.37564C3.95916 6.23672 4.0372 6.04831 4.0372 5.85186C4.0372 5.6554 3.95916 5.46699 3.82024 5.32807C3.68133 5.18916 3.49292 5.11112 3.29646 5.11112C3.1 5.11112 2.91159 5.18916 2.77268 5.32807C2.63376 5.46699 2.55572 5.6554 2.55572 5.85186C2.55572 6.04831 2.63376 6.23672 2.77268 6.37564C2.91159 6.51456 3.1 6.5926 3.29646 6.5926ZM4.0372 3.62963C4.0372 3.43318 3.95916 3.24477 3.82024 3.10585C3.68133 2.96694 3.49292 2.88889 3.29646 2.88889C3.1 2.88889 2.91159 2.96694 2.77268 3.10585C2.63376 3.24477 2.55572 3.43318 2.55572 3.62963C2.55572 3.82609 2.63376 4.0145 2.77268 4.15342C2.91159 4.29233 3.1 4.37038 3.29646 4.37038C3.49292 4.37038 3.68133 4.29233 3.82024 4.15342C3.95916 4.0145 4.0372 3.82609 4.0372 3.62963ZM3.29646 8.81482C3.49292 8.81482 3.68133 8.73678 3.82024 8.59786C3.95916 8.45895 4.0372 8.27054 4.0372 8.07408C4.0372 7.87762 3.95916 7.68921 3.82024 7.5503C3.68133 7.41138 3.49292 7.33334 3.29646 7.33334C3.1 7.33334 2.91159 7.41138 2.77268 7.5503C2.63376 7.68921 2.55572 7.87762 2.55572 8.07408C2.55572 8.27054 2.63376 8.45895 2.77268 8.59786C2.91159 8.73678 3.1 8.81482 3.29646 8.81482ZM5.51868 3.07408C5.21081 3.07408 4.96313 3.32176 4.96313 3.62963C4.96313 3.93751 5.21081 4.18519 5.51868 4.18519H10.7039C11.0117 4.18519 11.2594 3.93751 11.2594 3.62963C11.2594 3.32176 11.0117 3.07408 10.7039 3.07408H5.51868ZM5.51868 5.2963C5.21081 5.2963 4.96313 5.54399 4.96313 5.85186C4.96313 6.15973 5.21081 6.40741 5.51868 6.40741H10.7039C11.0117 6.40741 11.2594 6.15973 11.2594 5.85186C11.2594 5.54399 11.0117 5.2963 10.7039 5.2963H5.51868ZM5.51868 7.51852C5.21081 7.51852 4.96313 7.76621 4.96313 8.07408C4.96313 8.38195 5.21081 8.62963 5.51868 8.62963H10.7039C11.0117 8.62963 11.2594 8.38195 11.2594 8.07408C11.2594 7.76621 11.0117 7.51852 10.7039 7.51852H5.51868Z" fill="white"/>
</svg>
