<svg width="16" height="16" viewBox="0 0 16 16" fill="none" xmlns="http://www.w3.org/2000/svg">
<path d="M1.3335 4.14815C1.3335 3.33102 1.99785 2.66666 2.81498 2.66666H13.1853C14.0025 2.66666 14.6668 3.33102 14.6668 4.14815V11.5556C14.6668 12.3727 14.0025 13.037 13.1853 13.037H2.81498C1.99785 13.037 1.3335 12.3727 1.3335 11.5556V4.14815ZM4.29646 8.59259C4.49292 8.59259 4.68133 8.51455 4.82024 8.37563C4.95916 8.23672 5.0372 8.04831 5.0372 7.85185C5.0372 7.65539 4.95916 7.46698 4.82024 7.32807C4.68133 7.18915 4.49292 7.11111 4.29646 7.11111C4.1 7.11111 3.91159 7.18915 3.77268 7.32807C3.63376 7.46698 3.55572 7.65539 3.55572 7.85185C3.55572 8.04831 3.63376 8.23672 3.77268 8.37563C3.91159 8.51455 4.1 8.59259 4.29646 8.59259ZM5.0372 5.62963C5.0372 5.43317 4.95916 5.24476 4.82024 5.10584C4.68133 4.96693 4.49292 4.88889 4.29646 4.88889C4.1 4.88889 3.91159 4.96693 3.77268 5.10584C3.63376 5.24476 3.55572 5.43317 3.55572 5.62963C3.55572 5.82608 3.63376 6.01449 3.77268 6.15341C3.91159 6.29233 4.1 6.37037 4.29646 6.37037C4.49292 6.37037 4.68133 6.29233 4.82024 6.15341C4.95916 6.01449 5.0372 5.82608 5.0372 5.62963ZM4.29646 10.8148C4.49292 10.8148 4.68133 10.7368 4.82024 10.5979C4.95916 10.4589 5.0372 10.2705 5.0372 10.0741C5.0372 9.87761 4.95916 9.6892 4.82024 9.55029C4.68133 9.41137 4.49292 9.33333 4.29646 9.33333C4.1 9.33333 3.91159 9.41137 3.77268 9.55029C3.63376 9.6892 3.55572 9.87761 3.55572 10.0741C3.55572 10.2705 3.63376 10.4589 3.77268 10.5979C3.91159 10.7368 4.1 10.8148 4.29646 10.8148ZM6.51868 5.07407C6.21081 5.07407 5.96313 5.32176 5.96313 5.62963C5.96313 5.9375 6.21081 6.18518 6.51868 6.18518H11.7039C12.0117 6.18518 12.2594 5.9375 12.2594 5.62963C12.2594 5.32176 12.0117 5.07407 11.7039 5.07407H6.51868ZM6.51868 7.29629C6.21081 7.29629 5.96313 7.54398 5.96313 7.85185C5.96313 8.15972 6.21081 8.4074 6.51868 8.4074H11.7039C12.0117 8.4074 12.2594 8.15972 12.2594 7.85185C12.2594 7.54398 12.0117 7.29629 11.7039 7.29629H6.51868ZM6.51868 9.51852C6.21081 9.51852 5.96313 9.7662 5.96313 10.0741C5.96313 10.3819 6.21081 10.6296 6.51868 10.6296H11.7039C12.0117 10.6296 12.2594 10.3819 12.2594 10.0741C12.2594 9.7662 12.0117 9.51852 11.7039 9.51852H6.51868Z" fill="#6C757D"/>
</svg>
