<svg width="16" height="16" viewBox="0 0 16 16" fill="none" xmlns="http://www.w3.org/2000/svg">
<g opacity="0.2">
<path d="M8 14C9.5913 14 11.1174 13.3679 12.2426 12.2426C13.3679 11.1174 14 9.5913 14 8C14 6.4087 13.3679 4.88258 12.2426 3.75736C11.1174 2.63214 9.5913 2 8 2C6.4087 2 4.88258 2.63214 3.75736 3.75736C2.63214 4.88258 2 6.4087 2 8C2 9.5913 2.63214 11.1174 3.75736 12.2426C4.88258 13.3679 6.4087 14 8 14ZM7.4375 10.0625V8.5625H5.9375C5.62578 8.5625 5.375 8.31172 5.375 8C5.375 7.68828 5.62578 7.4375 5.9375 7.4375H7.4375V5.9375C7.4375 5.62578 7.68828 5.375 8 5.375C8.31172 5.375 8.5625 5.62578 8.5625 5.9375V7.4375H10.0625C10.3742 7.4375 10.625 7.68828 10.625 8C10.625 8.31172 10.3742 8.5625 10.0625 8.5625H8.5625V10.0625C8.5625 10.3742 8.31172 10.625 8 10.625C7.68828 10.625 7.4375 10.3742 7.4375 10.0625Z" fill="#6C757D"/>
</g>
</svg>
