<svg width="18" height="18" viewBox="0 0 18 18" fill="none" xmlns="http://www.w3.org/2000/svg">
<path d="M11.625 10.5H11.0287L10.8221 10.2938C11.5575 9.4425 12 8.33625 12 7.125C12 4.4325 9.8175 2.25 7.125 2.25C4.4325 2.25 2.25 4.4325 2.25 7.125C2.25 9.8175 4.4325 12 7.125 12C8.33625 12 9.4425 11.5575 10.2938 10.8263L10.5 11.0325V11.625L14.25 15.3675L15.3675 14.25L11.625 10.5ZM7.125 10.5C5.26125 10.5 3.75 8.98913 3.75 7.125C3.75 5.26087 5.26125 3.75 7.125 3.75C8.98875 3.75 10.5 5.26087 10.5 7.125C10.5 8.98913 8.98875 10.5 7.125 10.5Z" fill="#63646C"/>
</svg>
